<svg xmlns="http://www.w3.org/2000/svg" viewBox="0 0 873.88 219.7"><path shape-rendering="geometricPrecision" d="M590.47,81.67H555.78v-29h34.69Zm237.93,91.4h36.38c-5.54,33-33.76,45.09-64.08,45.09-22.58,0-39.48-6.16-50.91-21.29v18.67H692.31V196.66c-8.57,13.18-19.54,20.42-36.67,20.42-19.08,0-33.77-7.24-42.12-19.75v18.21H533.39V200.39c-7.43,11-21.48,16.9-38.61,16.9-18.65,0-31.15-4.18-43.89-17.77v16H426.31V200.83c-6.14,8.78-14.71,16.46-30.51,16.46-27.43,0-39.29-14.92-39.29-44.76v-50H330.62v64.76h16.26v28.3H294V193.36c-7.24,13-22.4,23.93-40.17,23.93-22.16,0-39.06-9.45-39.06-33.8v-61h-9.66c-4.39,55.75-42.35,97.22-99.42,97.22-59.9,0-99.63-45.86-99.63-105.1,0-61,36.42-107.29,99.63-107.29,54.86,0,88.87,38.83,97.67,86.21h48.49v72.42c0,12.48,3.72,21.93,17.77,21.93,16.46,0,24.14-11.61,24.14-26.76v-38h-20V93.54h56.61c28.72,0,34.44-10.3,34.44-32H394v32h36.88V107.8c6.35-8.55,19.53-14.92,40.15-14.92,17.13,0,27,6.57,33.8,16.23V94h85.58v93.27H610a99.4,99.4,0,0,1-5.24-33.15C604.72,119.43,624,94,660,94a38,38,0,0,1,32.28,17.33V81.68H670.57v-29h58.61V187h16.67c-4.16-8.77-5.93-20-5.93-32,0-38.83,28.31-63,63.21-63,37.5,0,61,24.78,61,64.28v5.06h-84.5c.67,23.24,10.1,31.38,23.5,31.38C818.11,192.71,825.22,186.32,828.4,173.07Zm-48.1-31.26h44.75c-1.09-15.57-6.58-24.58-21.71-24.58C792.14,117.23,782.92,124,780.3,141.81Zm-632-16.65c0-28.53-12.07-87.34-48.51-87.34-27.43,0-36.65,36.62-36.65,60.76,0,41.93,18.24,89.52,48.08,89.31C139.51,187.89,148.27,152.11,148.27,125.16Zm355.06,59.21c0-22.81-76.13-.44-76.13-56a51.1,51.1,0,0,1,.21-5.93H394.05v55.06c0,7.24.85,16.25,9.86,16.25s9.22-7.45,8.58-20.85H454c8.12,13.17,16,21.08,33.36,21.08C494.13,194,503.33,192.28,503.33,184.37Zm53.59-61.89H535.19v8.78H503.58c-5.49-11.41-12.51-15.13-24.58-15.13-8.55,0-18,1.31-18,8.55,0,21.73,77,.23,77,53.11a60.4,60.4,0,0,1-.66,9.2h19.55Zm135.41,25.7c0-14.28-7.7-28.53-22.62-28.53-18.9,0-25,17.34-25,33.13C644.67,169,649.06,189,669,189c16,0,23.27-14.71,23.29-28.74Zm175,57.18h-2.85v8h1.3v-3.23h1.46l1.92,3.23h1.51L868.54,210a2.21,2.21,0,0,0,1.72-2.25C870.26,206.5,869.41,205.36,867.33,205.36Zm.14,1.13c.9,0,1.45.42,1.45,1.26,0,1.06-.7,1.35-1.47,1.35h-1.67v-2.61Zm6.41,2.89a6.67,6.67,0,1,0-6.67,6.67A6.67,6.67,0,0,0,873.88,209.38Zm-.66,0a6,6,0,1,1-6-6A6,6,0,0,1,873.22,209.38Z" fill="#e4202c"/><path shape-rendering="geometricPrecision" d="M584.79,74.53H550.1V45.59h34.69ZM822.72,166h36.39c-5.55,33-33.76,45.05-64.07,45.05-22.58,0-39.48-6.16-50.91-21.29v18.67H686.65V189.58C678.08,202.75,667.11,210,650,210c-19.08,0-33.77-7.24-42.12-19.75v18.21H527.73V193.3c-7.43,11-21.48,16.9-38.61,16.9-18.65,0-31.15-4.18-43.89-17.77v16H420.65V193.74c-6.14,8.78-14.71,16.46-30.51,16.46-27.43,0-39.29-14.92-39.29-44.76v-50H325v64.74h16.25v28.32H288.33V186.27c-7.25,13-22.4,23.93-40.17,23.93-22.17,0-39.07-9.45-39.07-33.8v-61h-9.66C195,171.14,157.08,212.61,100,212.61,40.11,212.61.38,166.74.39,107.48.39,46.49,36.81.19,100,.19,154.88.19,188.91,39,197.67,86.4h48.49v72.42c0,12.48,3.72,21.93,17.77,21.93,16.46,0,24.14-11.61,24.14-26.76V116h-20V86.42h56.61c28.72,0,34.44-10.3,34.44-32h29.18V86.44h36.88V100.7c6.35-8.55,19.53-14.92,40.15-14.92,17.13,0,27,6.57,33.8,16.23V86.88h85.6v93.27h19.52A99.15,99.15,0,0,1,599.05,147c0-34.67,19.32-60.12,55.3-60.12a38,38,0,0,1,32.28,17.33V74.58H664.9v-29h58.61v134.3h16.67c-4.16-8.77-5.93-20-5.93-32,0-38.83,28.31-63,63.21-63,37.5,0,61,24.78,61,64.28v5.06H774c.67,23.24,10.1,31.38,23.5,31.38C812.43,185.63,819.53,179.25,822.72,166Zm-48.1-31.31h44.75c-1.09-15.57-6.58-24.58-21.71-24.58C786.46,110.14,777.24,117,774.62,134.72ZM142.58,118c0-28.53-12.07-87.34-48.51-87.34-27.43,0-36.65,36.62-36.65,60.76,0,41.93,18.23,89.52,48.08,89.31C133.83,180.77,142.59,145,142.58,118Zm355.07,59.24c0-22.81-76.13-.44-76.13-56a51.1,51.1,0,0,1,.21-5.93H388.37v55.06c0,7.24.85,16.25,9.86,16.25s9.22-7.45,8.57-20.85h41.48c8.11,13.17,16,21.08,33.36,21.08C488.45,186.93,497.67,185.16,497.65,177.28Zm53.59-61.9H529.51v8.78H497.9c-5.49-11.4-12.51-15.13-24.58-15.13-8.55,0-18,1.31-18,8.55,0,21.72,77,.22,77,53.1a59.28,59.28,0,0,1-.67,9.21h19.56Zm135.41,25.68c0-14.28-7.7-28.53-22.62-28.53-18.9,0-25,17.34-25,33.13,0,16.23,4.39,36.21,24.37,36.21,16,0,23.26-14.69,23.29-28.74Z" fill="#ffd200"/><path shape-rendering="geometricPrecision" d="M529.11,124h-31c-5.37-11-12.11-15.13-24.81-15.13-12.35,0-18.36,2.92-18.36,8.91,0,8.78,12.22,10.76,26.37,13,22.56,3.64,50.66,8.16,50.66,40.08a61,61,0,0,1-.67,9.16l-.06.42h20.36V115.18H529.11Zm.7-8h21v63.8H532.06a56,56,0,0,0,.58-8.86c0-32.55-28.43-37.13-51.26-40.79-14.38-2.31-25.77-4.14-25.77-12.32,0-5.52,5.79-8.2,17.65-8.2,12.43,0,19,4.06,24.25,14.94l.1.21h32.2Zm329,49.71H822.49c-3.24,14-10.64,19.83-25,19.83-14.88,0-22.43-10-23.12-30.67h84.5v-5.41c0-39.87-23.49-64.63-61.35-64.63-17.44,0-33.4,6-44.93,17-12.2,11.59-18.63,27.61-18.63,46.3,0,12.75,1.93,23.41,5.72,31.67H723.87V45.44H664.55V75.1H686.3v28.09a38.26,38.26,0,0,0-31.53-16.5h-.4c-17.3,0-31.62,6-41.42,17.19-9.31,10.67-14.24,25.65-14.24,43.28a99.25,99.25,0,0,0,5.1,32.8H585.14V86.71H498.83v14.38c-7.85-10.57-18.51-15.5-33.45-15.5-18.31,0-32.38,5-39.79,14.23V86.25H388.71v-32H358.82v.35c0,21-5.26,31.67-34.09,31.67h-57v30.34h20V154.2c0,16.55-8.91,26.41-23.79,26.41-11.88,0-17.42-6.87-17.42-21.58V86.26H197.94c-4.58-24.52-15.5-45.54-31.59-60.81C148.83,8.8,125.87,0,100,0,69.61,0,44.1,10.67,26.2,30.88,9.05,50.24,0,76.79,0,107.65c0,29.22,9.74,55.85,27.45,75,18.11,19.63,43.87,30.45,72.53,30.45,55,0,95.05-39.06,99.81-97.22h9v60.65c0,22,14,34.15,39.42,34.15,16,0,31.44-9,39.81-22.95V209H341.6V180H325.35v-64h25.16v49.75c0,30.78,12.59,45.12,39.65,45.12,16.32,0,24.71-8.18,30.14-15.69V209h25.29V193.56c12,12.55,23.87,17.23,43.52,17.23,16.88,0,30.74-5.87,38.25-16.13V209H608.2V191.6c8.68,12.24,23.45,19,41.77,19,15.92,0,27.16-6.05,36.3-19.58v18h58.21V191c11,14,27.12,20.58,50.55,20.58,36.51,0,59.89-16.74,64.55-46h-.74ZM795,210.87c-23.67,0-39.75-6.72-50.64-21.14l-.64-.85v19.37H687V188.52l-.67,1c-9.1,14-20.31,20.25-36.36,20.25-18.54,0-33.4-6.95-41.83-19.58l-.65-1v19h-79.4V192.33l-.64,1C520.21,203.92,506.25,210,489.1,210c-19.75,0-31.57-4.79-43.62-17.67l-.62-.67v16.56H421V192.76l-.64.94C415,201.3,406.8,210,390.13,210c-26.58,0-38.94-14.11-38.94-44.41v-50.4h-26.6v65.45h16.25v27.57H288.66V185.05l-.67,1.21C279.91,200.68,264.28,210,248.13,210c-25,0-38.71-11.88-38.71-33.44V115.19H199.08l0,.33c-4.56,58-44.37,96.89-99.07,96.89-28.87,0-53.76-10.44-72-30.21C10.4,163.16.72,136.69.72,107.66c0-30.7,9-57.06,26-76.29C44.49,11.31,69.82.72,100,.72c25.7,0,48.47,8.74,65.82,25.25,16,15.23,26.91,36.23,31.45,60.7l.06.29h48.51v72c0,15.22,5.77,22.29,18.13,22.29,15.34,0,24.5-10.14,24.5-27.12V115.84h-20V86.94h56.26c29.26,0,34.74-10.78,34.8-32H388V87h36.88v15l.65-.87c7.08-9.53,21.23-14.77,39.86-14.77,15.11,0,25.75,5.12,33.51,16.09l.65.92V87.41h84.87v93.25H604.8l-.17-.48a99,99,0,0,1-5.22-33c0-36.88,21.07-59.77,55-59.77h.4a37.46,37.46,0,0,1,31.59,17.17l.66,1V74.39H665.26V46.15h57.88V180.42h17.61l-.25-.52c-3.91-8.24-5.89-19-5.89-31.88,0-18.48,6.37-34.31,18.4-45.78,11.38-10.84,27.18-16.81,44.43-16.81,37.4,0,60.65,24.48,60.65,63.91V154H773.57v.37c.6,21.06,8.64,31.74,23.85,31.74,14.64,0,22.21-5.82,25.61-19.83h35.69C853.81,194.67,830.78,210.87,795,210.87ZM94,30.53c-29.26,0-37,40-37,61.14,0,32.21,10.35,64.16,25.77,79.45,6.83,6.77,14.38,10.2,22.46,10.2h.21c27.64,0,37.46-34,37.43-63.1C142.9,89.61,131,30.53,94,30.53ZM142.2,118.2c0,28.78-9.61,62.39-36.73,62.39a.65.65,0,0,1-.19,0c-7.89,0-15.28-3.35-22-10-15.3-15.17-25.56-46.9-25.56-79,0-20.89,7.6-60.41,36.3-60.41C113.9,31.22,125.45,49,131.63,64,139.43,82.78,142.2,104.94,142.2,118.2ZM585.11,45.42h-35.4V75.09h35.4Zm-.7,28.94h-34V46.15h34ZM819.7,134.85c-1.2-17.23-8-24.91-22.08-24.91-9,0-20.35,4.31-23.39,24.89l-.06.42h45.56Zm-44.7-.33c3.06-19.7,14-23.87,22.63-23.87,13.69,0,20.08,7.14,21.33,23.87ZM471.88,163.71c-22.29-3.87-50.05-8.7-50.05-42.22a55.21,55.21,0,0,1,.21-5.89l0-.4H388v55.44c0,5,0,16.61,10.22,16.61,2.85,0,4.93-.73,6.37-2.25,3-3.2,3-9.74,2.58-18.62H448c4.71,7.6,8.68,12.22,13.24,15.42,5.49,3.87,12,5.66,20.33,5.66,4.94,0,16.38-1,16.35-10C498,168.25,485.87,166.14,471.88,163.71Zm9.71,23c-16.94,0-24.68-7.36-33-20.91l-.1-.17h-42v.39c.44,8.89.52,15.42-2.37,18.46-1.31,1.35-3.21,2-5.85,2-8.39,0-9.51-8-9.51-15.9V115.91h32.61a49.55,49.55,0,0,0-.19,5.58c0,34.11,28.1,39,50.66,42.91,14.25,2.48,25.49,4.44,25.49,13C497.24,185.83,486.29,186.75,481.59,186.75ZM664,112.37c-8.77,0-15.47,3.62-19.9,10.8-3.53,5.72-5.49,13.77-5.49,22.68,0,13.65,3.21,36.56,24.73,36.56,16.23,0,23.62-15.07,23.64-29.09V141.25C687,126.9,679.08,112.37,664,112.37Zm22.25,40.94c0,13.67-7.18,28.38-22.91,28.38-20.9,0-24-22.47-24-35.85,0-30.4,18.87-32.77,24.66-32.77,14.61,0,22.27,14.17,22.27,28.17Z"/></svg>